<?xml version="1.0" encoding="UTF-8"?>
<svg xmlns="http://www.w3.org/2000/svg" xmlns:xlink="http://www.w3.org/1999/xlink" width="4500px" height="3000px" viewBox="0 0 4500 3000" version="1.1">
<g id="surface1">
<rect x="0" y="0" width="2500" height="1200" style="fill:none;fill-opacity:1;stroke:none;"/>
<path style="fill:none;stroke-width:3;stroke-linecap:butt;stroke-linejoin:miter;stroke:#FFFFFF;stroke-opacity:1;stroke-miterlimit:10;" d="M 309.054036 -19.186198 C 294.179036 -11.382161 286.070964 5.507161 283.494792 22.104818 C 280.917969 38.703776 282.860026 55.628255 282.736979 72.42513 C 282.628255 87.332682 280.880208 102.227865 277.533854 116.755208 C 276.121094 122.889323 274.382161 129.057292 271.044922 134.39388 C 263.630859 146.251302 249.595703 152.158203 236.016276 155.496094 C 222.436198 158.833984 208.188802 160.410807 195.729818 166.761719 C 179.02474 175.276693 167.533854 191.378255 158.664714 207.897786 C 149.796224 224.417969 142.791016 242.070312 131.695312 257.184896 C 120.598958 272.30013 104.236979 285 85.509766 285.932943 C 68.098958 286.800781 51.983073 277.595703 35.147786 273.074219 C 11.69401 266.774089 -14.145833 269.876953 -35.442057 281.550781 " transform="matrix(6,0,0,6,0,0)"/>
<path style="fill:none;stroke-width:3;stroke-linecap:butt;stroke-linejoin:miter;stroke:#FFFFFF;stroke-opacity:1;stroke-miterlimit:10;" d="M 360.065755 223.438802 C 320.277995 257.753255 309.195964 318.789714 265.513021 347.983724 C 248.837891 359.128255 228.341797 364.820964 214.347005 379.186849 C 199.570312 394.35612 194.641927 417.496094 198.895833 438.240885 C 203.14974 458.986979 215.695964 477.375 231.367839 491.617839 C 259.869792 517.520833 301.253255 530.682292 338.264974 520.033203 C 366.929688 511.785156 390.080729 490.813802 410.240885 468.830729 C 430.401042 446.847005 449.014974 422.914714 473.39388 405.729167 C 504.897135 383.520833 543.722005 374.201823 576.880208 354.55013 C 586.945964 348.583984 596.792318 341.304036 602.253255 330.955729 C 607.623698 320.777995 608.154948 308.766927 607.574219 297.272786 C 606.822917 282.423177 604.029948 266.809245 594.309896 255.557292 C 584.240234 243.901042 568.630208 238.994792 553.861979 234.617188 C 533.442057 228.563802 512.406901 223.451172 492.399089 216.147135 C 480.492839 211.800781 469.763021 205.072917 457.429688 201.865885 C 423.026693 192.917318 387.561198 201.442708 360.065755 223.438802 Z M 360.065755 223.438802 " transform="matrix(6,0,0,6,0,0)"/>
<path style="fill:none;stroke-width:3;stroke-linecap:butt;stroke-linejoin:miter;stroke:#FFFFFF;stroke-opacity:1;stroke-miterlimit:10;" d="M 562.865234 -36.582682 C 534.501953 -21.798177 516.55013 12.184896 513.522135 43.192057 C 509.809245 81.216146 531.992188 108.175781 567.992839 118.552083 C 593.404948 125.875 622.794271 120.901042 646.526693 134.078776 C 676.048828 150.470052 666.186849 188.899089 675.244141 215.871094 C 687.100911 251.184896 710.848958 281.703125 714.535156 319.66276 C 717.647135 351.716797 709.229818 384.813802 691.130208 411.457031 C 672.988932 438.16276 644.720703 458.341797 634.363281 489.996094 C 629.28776 505.505859 629.332031 522.645182 634.486979 538.128255 " transform="matrix(6,0,0,6,0,0)"/>
<path style="fill:none;stroke-width:3;stroke-linecap:butt;stroke-linejoin:miter;stroke:#FFFFFF;stroke-opacity:1;stroke-miterlimit:10;" d="M 412.292969 -21.925781 C 372.492839 30.736979 380.897135 107.533854 344.662109 162.710938 C 325.361979 192.10026 295.227865 212.42513 265.147786 230.628906 C 241.602214 244.878906 216.802083 259.026042 200.929036 281.509115 C 188.794271 298.699219 182.901693 319.371745 176.145182 339.298828 C 165.197917 371.582031 150.190104 404.567057 122.322266 424.197917 C 90.347005 446.722005 48.442708 447.128906 10.535156 456.757161 C 0.35026 459.34375 -10.639323 463.434896 -15.522135 472.740234 " transform="matrix(6,0,0,6,0,0)"/>
<path style="fill:none;stroke-width:3;stroke-linecap:butt;stroke-linejoin:miter;stroke:#FFFFFF;stroke-opacity:1;stroke-miterlimit:10;" d="M 437.85026 528.740234 C 461.735677 517.682943 476.251302 493.509766 489.766276 470.923828 C 503.28125 448.337891 518.940104 424.544271 543.585938 415.30599 C 552.076823 412.123047 562.136719 411.054688 569.82487 415.863932 C 574.044922 418.503906 577.134115 422.686198 579.19987 427.214844 C 586.632161 443.514323 581.304036 462.542318 575.352865 479.438802 C 569.402995 496.335938 562.835938 514.583984 568.10612 531.705078 C 568.923177 534.358724 570.423828 537.279948 573.151693 537.80013 " transform="matrix(6,0,0,6,0,0)"/>
<path style="fill:none;stroke-width:3;stroke-linecap:butt;stroke-linejoin:miter;stroke:#FFFFFF;stroke-opacity:1;stroke-miterlimit:10;" d="M 688.416016 -23.848307 C 680.570964 6.865885 692.927734 40.617188 715.53125 62.843099 C 738.134115 85.06901 769.617839 96.673828 801.154948 99.886068 " transform="matrix(6,0,0,6,0,0)"/>
<path style="fill:none;stroke-width:3;stroke-linecap:butt;stroke-linejoin:miter;stroke:#FFFFFF;stroke-opacity:1;stroke-miterlimit:10;" d="M 166.557943 -36.083984 C 137.977214 -20.496745 123.572266 12.535807 116.832682 44.386068 C 110.09375 76.235026 108.865234 109.503906 97.072917 139.848307 C 84.738932 171.58724 61.658854 197.929688 37.15625 221.57487 C 18.06901 239.992839 -5.054036 258.287109 -31.544271 256.942057 " transform="matrix(6,0,0,6,0,0)"/>
<path style="fill:none;stroke-width:1;stroke-linecap:butt;stroke-linejoin:miter;stroke:#FFFFFF;stroke-opacity:1;stroke-miterlimit:10;" d="M 137.927734 -33.615885 C 135.393229 -33.082682 133.66276 -30.796875 132.21875 -28.645182 C 107.427734 8.298828 97.070312 52.779297 87.276042 96.179036 C 83.815755 111.513021 80.348307 126.91276 74.703125 141.583984 C 57.83724 185.41276 20.858073 221.03125 -23.572266 236.242188 " transform="matrix(6,0,0,6,0,0)"/>
<path style="fill:none;stroke-width:1;stroke-linecap:butt;stroke-linejoin:miter;stroke:#FFFFFF;stroke-opacity:1;stroke-miterlimit:10;" d="M 116.988932 -35.257812 C 114.602865 -34.727865 112.886719 -32.736979 111.412109 -30.852214 C 107.123698 -25.371745 103.199219 -19.660807 99.669922 -13.626953 C 94.921224 -5.505859 90.910156 3.27474 88.059245 12.281901 C 86.921224 15.880208 85.964193 19.509115 84.802083 23.147786 C 82.59375 30.06901 79.80013 36.574219 77.348307 43.188151 C 72.526042 56.154948 68.738281 69.947917 65.404948 83.82487 C 63.449219 91.983073 61.623047 100.21875 59.574219 108.328125 C 58.001302 114.559896 56.283203 120.735677 54.238281 126.798177 C 49.063802 142.136719 41.72526 156.55599 32.214844 169.505859 C 15.860026 191.776693 -6.957682 209.565104 -33.046224 219.473307 " transform="matrix(6,0,0,6,0,0)"/>
<path style="fill:none;stroke-width:1;stroke-linecap:butt;stroke-linejoin:miter;stroke:#FFFFFF;stroke-opacity:1;stroke-miterlimit:10;" d="M 96.050781 -36.89974 C 93.815104 -36.373698 92.113281 -34.677734 90.60612 -33.059245 C 86.227865 -28.354818 82.162109 -23.404948 78.541016 -17.981771 C 73.669271 -10.684245 69.645182 -2.382812 67.479167 6.15625 C 66.613932 9.567708 66.03776 13.009115 64.990234 16.442708 C 62.994792 22.979167 59.60026 28.583984 56.729818 34.350911 C 51.074219 45.667318 46.880208 58.423828 43.533203 71.473307 C 41.580078 79.110677 39.886719 86.884766 38.145833 94.526693 C 36.807943 100.41276 35.410807 106.257812 33.772135 112.013021 C 29.625 126.576172 23.867188 140.410156 15.858073 153.020833 C 2.083984 174.710286 -18.436849 192.507812 -42.520182 202.703776 " transform="matrix(6,0,0,6,0,0)"/>
<path style="fill:none;stroke-width:1;stroke-linecap:butt;stroke-linejoin:miter;stroke:#FFFFFF;stroke-opacity:1;stroke-miterlimit:10;" d="M 75.113281 -38.542318 C 73.026042 -38.01888 71.337891 -36.617839 69.80013 -35.266276 C 65.332031 -31.33724 61.125 -27.149089 57.41276 -22.33724 C 52.417969 -15.863281 48.382161 -8.041016 46.89974 0.0299479 C 46.307943 3.257161 46.113932 6.509115 45.177734 9.736979 C 43.397135 15.888021 39.39974 20.593099 36.113281 25.513021 C 29.623047 35.179036 25.024089 46.899089 21.66276 59.119141 C 19.71224 66.236979 18.152995 73.55013 16.71875 80.72526 C 15.615234 86.264323 14.541016 91.779297 13.307943 97.227214 C 10.188151 111.013021 6.011719 124.261719 -0.496745 136.533854 C -11.690755 157.641276 -29.914714 175.449219 -51.992188 185.934245 " transform="matrix(6,0,0,6,0,0)"/>
<path style="fill:none;stroke-width:1;stroke-linecap:butt;stroke-linejoin:miter;stroke:#FFFFFF;stroke-opacity:1;stroke-miterlimit:10;" d="M 54.173828 -40.184245 C 52.236979 -39.664714 50.563151 -38.559245 48.992188 -37.473307 C 44.434245 -34.320312 40.085938 -30.891927 36.281901 -26.692057 C 31.164714 -21.041016 27.115885 -13.69987 26.31901 -6.097005 C 26.001302 -3.05599 26.186849 0.0078125 25.363932 3.03125 C 23.796224 8.796875 19.197266 12.602214 15.492839 16.67513 C 8.169922 24.688802 3.166016 35.373047 -0.208984 46.764974 C -2.156901 53.363932 -3.582031 60.214193 -4.708984 66.923177 C -5.578125 72.115885 -6.330729 77.298828 -7.158203 82.440755 C -9.25 95.451172 -11.845703 108.115234 -16.854818 120.048177 C -25.46875 140.572917 -41.395833 158.391276 -61.466797 169.164714 " transform="matrix(6,0,0,6,0,0)"/>
<path style="fill:none;stroke-width:1;stroke-linecap:butt;stroke-linejoin:miter;stroke:#FFFFFF;stroke-opacity:1;stroke-miterlimit:10;" d="M 33.235677 -41.826172 C 31.449219 -41.311198 29.78776 -40.498698 28.186198 -39.679688 C 23.53776 -37.302083 19.048828 -34.636068 15.154297 -31.048177 C 9.914062 -26.220703 5.852865 -19.360026 5.740234 -12.223958 C 5.695312 -9.369141 6.263021 -6.492839 5.552734 -3.675781 C 4.197917 1.705078 -1.001953 4.610026 -5.123047 7.835938 C -13.28125 14.19987 -18.690755 23.848307 -22.080078 34.412109 C -24.026042 40.490885 -25.317057 46.878906 -26.136719 53.121745 C -26.770833 57.968099 -27.201823 62.820964 -27.623047 67.65625 C -28.688151 79.889974 -29.703125 91.968099 -33.210938 103.563151 C -39.244792 123.505859 -52.875 141.332682 -70.940104 152.397135 " transform="matrix(6,0,0,6,0,0)"/>
<path style="fill:none;stroke-width:1;stroke-linecap:butt;stroke-linejoin:miter;stroke:#FFFFFF;stroke-opacity:1;stroke-miterlimit:10;" d="M 12.298177 -43.468099 C 5.910807 -41.470703 -0.613281 -39.40625 -5.97526 -35.402995 C -11.33724 -31.39974 -15.410807 -25.018229 -14.839193 -18.35026 C -14.610026 -15.679688 -13.662109 -12.992839 -14.259115 -10.380859 C -15.39974 -5.384766 -21.201823 -3.380208 -25.740885 -1.001302 C -39.869141 6.404297 -46.154948 23.432292 -47.565104 39.320312 C -48.975911 55.207682 -46.766276 71.373047 -49.567708 87.076172 C -53.022135 106.436849 -64.354818 124.274089 -80.414714 135.626953 " transform="matrix(6,0,0,6,0,0)"/>
<path style="fill:none;stroke-width:1;stroke-linecap:butt;stroke-linejoin:miter;stroke:#FFFFFF;stroke-opacity:1;stroke-miterlimit:10;" d="M 165.544271 -10.802734 C 145.626953 1.565104 135.473958 25.136068 130.988281 48.147786 C 126.501953 71.160156 126.470052 94.94401 120.820312 117.697917 C 116.843099 133.714844 110.091797 149.03776 100.957682 162.783203 C 86.057292 185.205078 64.955729 203.363932 52.533203 227.248047 C 47.152995 237.591146 43.839193 251.072266 51.01888 260.257161 C 58.664714 270.039714 73.856771 269.296875 85.425781 264.785807 C 112.89974 254.072917 131.945964 228.751302 145.708984 202.671875 C 154.25 186.486979 161.996094 168.764323 176.96224 158.231771 C 200.227865 141.858073 236.016276 146.526042 254.048828 124.520833 C 265.535807 110.503906 265.345703 90.675781 266.149089 72.570964 C 266.968099 54.110026 269.404297 35.720052 273.421224 17.682292 C 276.005859 6.076172 279.296875 -5.514323 285.138021 -15.871094 " transform="matrix(6,0,0,6,0,0)"/>
<path style="fill:none;stroke-width:1;stroke-linecap:butt;stroke-linejoin:miter;stroke:#FFFFFF;stroke-opacity:1;stroke-miterlimit:10;" d="M 90.60026 196.80599 C 83.852865 203.533854 76.410156 209.608724 70.404948 217.005859 C 64.39974 224.404297 59.828125 233.507812 60.151693 243.029948 C 60.227865 245.276693 60.602865 247.585938 61.80013 249.488281 C 65.156901 254.820312 73.046875 254.608724 79.005859 252.561198 C 95.220052 246.988932 107.223307 233.147135 116.166016 218.51888 C 124.567057 204.776693 131.001953 189.895182 140.167969 176.610677 C 145.973958 168.195312 154.470703 159.554036 142.17513 152.613281 C 132.561849 147.186198 123.675781 150.684245 118.011719 159.166016 C 109.188802 172.380859 102.020182 185.419922 90.60026 196.80599 Z M 90.60026 196.80599 " transform="matrix(6,0,0,6,0,0)"/>
<path style="fill:none;stroke-width:1;stroke-linecap:butt;stroke-linejoin:miter;stroke:#FFFFFF;stroke-opacity:1;stroke-miterlimit:10;" d="M 148.022786 37.175781 C 141.210286 55.425781 139.052734 75.117188 138.89388 94.597005 C 138.796875 106.460286 140.289062 120.035807 149.927734 126.951823 C 155.220052 130.748698 161.994141 131.712891 168.490885 132.16276 C 187.628906 133.488932 207.003906 131.315104 225.371745 125.779948 C 230.041016 124.373047 234.824219 122.641276 238.23112 119.152995 C 243.09375 114.17513 244.171224 106.716146 244.807943 99.785156 C 246.779948 78.339844 246.957031 56.511068 252.852865 35.798828 C 255.861979 25.227865 260.361979 14.927734 261.117188 3.962891 C 261.5 -1.595703 260.73112 -7.613281 257.048828 -11.794922 C 253.341146 -16.005859 247.451823 -17.511719 241.873047 -18.117188 C 223.697266 -20.08724 198.725911 -16.050781 182.259766 -7.595703 C 165.876953 0.817708 154.222005 20.572917 148.022786 37.175781 Z M 148.022786 37.175781 " transform="matrix(6,0,0,6,0,0)"/>
<path style="fill:none;stroke-width:1;stroke-linecap:butt;stroke-linejoin:miter;stroke:#FFFFFF;stroke-opacity:1;stroke-miterlimit:10;" d="M 244.253255 1.145833 C 240.970703 -1.73112 236.464844 -2.945964 232.003255 -3.223958 C 217.498698 -4.151693 198.011719 -0.108073 185.082031 7.320964 C 172.214193 14.716797 163.104818 30.703125 158.266276 43.975911 C 153.104818 58.130859 151.404948 73.35612 151.322266 88.425781 C 151.270833 97.602865 152.520182 107.957682 159.766927 113.511068 C 163.921224 116.69401 169.203776 117.841146 174.397135 118.44401 C 178.421875 118.91276 182.503255 119.139323 186.608724 119.089844 C 198.115234 118.953776 209.47526 116.647786 220.141276 112.785807 C 223.811849 111.466146 227.524089 109.867839 230.19401 106.979167 C 233.921224 102.945964 234.828125 97.080729 235.380208 91.591797 C 237.087891 74.606771 237.210286 57.255859 242.317057 41.005208 C 245.141276 32.01888 249.328125 22.391276 249.253255 13.30013 C 249.214193 8.735677 247.848958 4.298177 244.253255 1.145833 Z M 244.253255 1.145833 " transform="matrix(6,0,0,6,0,0)"/>
<path style="fill:none;stroke-width:1;stroke-linecap:butt;stroke-linejoin:miter;stroke:#FFFFFF;stroke-opacity:1;stroke-miterlimit:10;" d="M 231.455729 14.085938 C 228.748047 12.481771 225.477214 11.625 222.130859 11.667318 C 211.298828 11.802734 197.294922 15.832682 187.901693 22.235677 C 178.550781 28.615234 171.985026 40.828776 168.507161 50.77474 C 164.990885 60.830729 163.753906 71.595052 163.746745 82.253255 C 163.742839 88.742839 164.738281 95.908203 169.604167 100.067708 C 172.623047 102.649089 176.412109 103.966146 180.30013 104.723307 C 183.315755 105.311849 186.429036 105.658854 189.59375 105.69401 C 198.473307 105.794271 207.102214 103.417969 214.904948 99.792318 C 217.57487 98.550781 220.220052 97.098307 222.151693 94.804036 C 224.746745 91.723307 225.48112 87.445312 225.947266 83.397135 C 227.391276 70.871094 227.533854 58.011068 231.776042 46.207682 C 234.436849 38.804688 238.300781 29.858724 237.384115 22.634115 C 236.934245 19.06901 235.104818 16.246745 231.455729 14.085938 Z M 231.455729 14.085938 " transform="matrix(6,0,0,6,0,0)"/>
<path style="fill:none;stroke-width:1;stroke-linecap:butt;stroke-linejoin:miter;stroke:#FFFFFF;stroke-opacity:1;stroke-miterlimit:10;" d="M 218.658854 27.02474 C 216.832682 26.17513 214.490885 26.190104 212.259115 26.557943 C 205.102214 27.738932 196.578776 31.774089 190.723307 37.151042 C 184.889323 42.513021 180.854167 50.947917 178.748698 57.574219 C 176.860026 63.522786 176.104818 69.832682 176.173828 76.080078 C 176.216146 79.882812 176.919922 83.93099 179.442708 86.626302 C 181.324219 88.634766 183.621745 90.093099 186.205078 91.003255 C 188.21224 91.712891 190.35612 92.179036 192.582682 92.298177 C 198.835938 92.634766 204.735677 90.207031 209.673177 86.796875 C 211.34375 85.643229 212.925781 84.335938 214.113932 82.628906 C 215.58724 80.511719 216.136719 77.809245 216.518229 75.203125 C 217.697917 67.136719 217.994141 58.800781 221.238932 51.412109 C 223.792318 45.60026 227.302734 37.332031 225.51888 31.970052 C 224.667318 29.404297 222.695312 27.369141 218.658854 27.02474 Z M 218.658854 27.02474 " transform="matrix(6,0,0,6,0,0)"/>
<path style="fill:none;stroke-width:1;stroke-linecap:butt;stroke-linejoin:miter;stroke:#FFFFFF;stroke-opacity:1;stroke-miterlimit:10;" d="M 188.992188 64.373698 C 188.438151 67.296224 188.28125 70.384115 189.283203 73.184245 C 190.285156 75.983724 192.634766 78.438151 195.572266 78.901693 C 200.395833 79.664714 204.44987 75.059245 206.076172 70.453125 C 207.701823 65.848307 208.037109 60.707682 210.701823 56.615234 C 214.587891 50.645833 219.139974 36.97526 205.863281 39.964844 C 197.160156 41.92513 190.457682 56.636068 188.992188 64.373698 Z M 188.992188 64.373698 " transform="matrix(6,0,0,6,0,0)"/>
<path style="fill:none;stroke-width:1;stroke-linecap:butt;stroke-linejoin:miter;stroke:#FFFFFF;stroke-opacity:1;stroke-miterlimit:10;" d="M -21.736979 329.789714 C 9.386068 343.774089 45.628255 328.583984 79.578125 331.988281 C 88.914062 332.923828 99.046875 335.960286 103.897786 343.990885 C 110.065755 354.201823 104.953776 367.438802 98.401042 377.406901 C 94.917969 382.705078 90.938151 387.841797 85.654297 391.347005 C 79.233073 395.606771 71.43099 397.121745 63.856771 398.544922 C 40.259115 402.98112 16.660807 407.417969 -6.936849 411.854167 C -15.94401 413.546875 -25.559245 415.55599 -31.945312 422.128906 " transform="matrix(6,0,0,6,0,0)"/>
<path style="fill:none;stroke-width:1;stroke-linecap:butt;stroke-linejoin:miter;stroke:#FFFFFF;stroke-opacity:1;stroke-miterlimit:10;" d="M -11.811198 348.367188 C 13.160156 348.037109 38.132161 347.707682 63.102865 347.378255 C 69.429688 347.294922 76.464193 347.47526 81.029297 351.85612 C 86.985026 357.570964 85.455078 368.08724 79.891927 374.184896 C 74.328776 380.283854 66.029297 382.979167 58.039714 385.054688 C 47.742839 387.73112 37.259766 389.794271 26.651042 390.58724 C 13.339844 391.582682 -0.966146 390.817708 -12.222005 397.994141 " transform="matrix(6,0,0,6,0,0)"/>
<path style="fill:none;stroke-width:1;stroke-linecap:butt;stroke-linejoin:miter;stroke:#FFFFFF;stroke-opacity:1;stroke-miterlimit:10;" d="M -11.839193 360.602214 C 6.17513 362.229818 24.468099 359.703125 42.339193 362.488932 C 44.598307 362.841146 46.917969 363.307943 48.794922 364.613932 C 50.671224 365.919922 51.996094 368.276693 51.434245 370.492188 C 50.641927 373.617839 46.882812 374.794271 43.697917 375.294922 C 24.966797 378.238932 5.472005 376.210938 -12.740234 381.485677 " transform="matrix(6,0,0,6,0,0)"/>
<path style="fill:none;stroke-width:1;stroke-linecap:butt;stroke-linejoin:miter;stroke:#FFFFFF;stroke-opacity:1;stroke-miterlimit:10;" d="M -32.100911 293.82487 C -15.613932 286.942057 3.143229 288.570312 20.667318 292.048177 C 38.190755 295.526693 55.580078 300.755859 73.445964 300.733073 C 103.669271 300.692708 133.389323 284.391276 149.664062 258.92513 C 159.402995 243.686198 164.541016 225.610026 175.973307 211.595703 C 190.897135 193.298828 214.216146 184.554688 236.141927 175.794271 C 258.067708 167.033203 281.054036 156.339193 293.253906 136.123698 C 301.669271 122.18099 303.807943 105.479167 306.179688 89.367188 C 308.893229 70.938151 312.145182 52.587891 315.929688 34.348958 C 319.830729 15.550781 325.81901 -5.244792 342.559245 -14.64388 " transform="matrix(6,0,0,6,0,0)"/>
<path style="fill:none;stroke-width:1;stroke-linecap:butt;stroke-linejoin:miter;stroke:#FFFFFF;stroke-opacity:1;stroke-miterlimit:10;" d="M -25.511719 311.141927 C 16.996094 316.85026 60.192708 317.410156 102.833984 312.804036 C 113.190104 311.686198 123.774089 310.182292 132.945312 305.244141 C 145.399089 298.53776 153.776693 286.35026 161.669922 274.611979 C 168.259115 264.813802 174.847005 255.016276 181.434896 245.218099 C 189.014974 233.945964 196.76888 222.483073 207.419271 214.052083 C 221.39388 202.988932 239.128255 198.080729 255.013021 189.996094 C 277.563151 178.518229 296.602214 160.251953 309.003906 138.197266 C 335.501953 91.076172 331.848307 28.899089 367.535807 -11.707031 " transform="matrix(6,0,0,6,0,0)"/>
<path style="fill:none;stroke-width:1;stroke-linecap:butt;stroke-linejoin:miter;stroke:#FFFFFF;stroke-opacity:1;stroke-miterlimit:10;" d="M 390.291016 -12.863281 C 366.048177 8.992188 365.587891 46.296875 356.783203 75.496094 C 346.972005 108.031901 332.85026 140.742188 311.740234 168.057943 C 289.166016 197.270182 258.664714 208.949219 228.886068 228.292318 C 197.684245 248.559245 175.466146 278.901693 157.897786 311.173177 C 141.182943 341.878255 131.578125 385.227214 102.091146 406.033854 C 63.277995 433.421224 7.52474 422.67513 -33.080729 447.32487 " transform="matrix(6,0,0,6,0,0)"/>
<path style="fill:none;stroke-width:1;stroke-linecap:butt;stroke-linejoin:miter;stroke:#FFFFFF;stroke-opacity:1;stroke-miterlimit:10;" d="M -12.238281 486.71224 C 5.703125 470.283854 32.93099 471.705729 56.951823 467.863932 C 77.179036 464.628906 96.429036 457.065104 115.378906 449.285807 C 124.389974 445.58724 133.673177 441.764974 143.414062 441.772786 C 163.501302 441.789062 179.720703 457.671224 192.313151 473.320964 C 204.904948 488.970703 217.692057 506.526693 236.910807 512.367188 " transform="matrix(6,0,0,6,0,0)"/>
<path style="fill:none;stroke-width:1;stroke-linecap:butt;stroke-linejoin:miter;stroke:#FFFFFF;stroke-opacity:1;stroke-miterlimit:10;" d="M -11.934896 505.007812 C 0.850911 490.509766 21.031901 485.029297 40.263021 483.059896 C 59.492839 481.091146 79.177083 481.865234 97.80013 476.68099 C 108.488281 473.705729 118.735677 468.78776 129.776042 467.692708 C 144.988932 466.184245 160.18099 472.216797 172.533203 481.22526 C 184.884766 490.233724 194.83724 502.072917 204.658203 513.789062 " transform="matrix(6,0,0,6,0,0)"/>
<path style="fill:none;stroke-width:1;stroke-linecap:butt;stroke-linejoin:miter;stroke:#FFFFFF;stroke-opacity:1;stroke-miterlimit:10;" d="M 22.727214 506.912109 C 30.063802 499.089844 41.559896 497.173828 52.182292 495.692708 C 69.669922 493.255208 87.158203 490.817708 104.645182 488.380208 C 111.320964 487.449219 118.078776 486.516927 124.78125 487.238281 C 142.294271 489.121745 156.492188 501.731771 169.391276 513.727214 " transform="matrix(6,0,0,6,0,0)"/>
<path style="fill:none;stroke-width:1;stroke-linecap:butt;stroke-linejoin:miter;stroke:#FFFFFF;stroke-opacity:1;stroke-miterlimit:10;" d="M 164.567057 404.44401 C 162.552734 407.186849 160.513021 409.979167 159.358073 413.179688 C 158.203125 416.380859 158.035156 420.104818 159.707682 423.06901 C 160.770182 424.951172 162.483724 426.386068 164.317057 427.53125 C 169.171224 430.565104 176.449219 431.347005 179.934896 426.807292 C 182.554688 423.395182 181.884115 418.619792 181.791016 414.317708 C 181.619141 406.332682 194.304688 386.524089 187.67513 382.130208 C 179.621745 376.792969 168.457031 399.14388 164.567057 404.44401 Z M 164.567057 404.44401 " transform="matrix(6,0,0,6,0,0)"/>
<path style="fill:none;stroke-width:1;stroke-linecap:butt;stroke-linejoin:miter;stroke:#FFFFFF;stroke-opacity:1;stroke-miterlimit:10;" d="M 259.981771 260.608724 C 245.847005 269.024089 231.531901 277.580729 220.083984 289.39388 C 210.884766 298.886068 203.735677 310.354167 199.261719 322.792318 C 196.175781 331.373047 194.397135 341.014323 197.714844 349.507812 C 198.421224 351.313802 199.425781 353.119141 201.091146 354.111979 C 203.022786 355.263021 205.440104 355.098958 207.669271 354.804036 C 226.505859 352.311198 244.027995 342.942708 258.160156 330.240885 C 272.292318 317.539062 283.227214 301.617839 292.123698 284.828776 C 296.505208 276.561849 313.302083 248.647135 302.541016 241.074219 C 293.197266 234.498047 268.190104 255.722005 259.981771 260.608724 Z M 259.981771 260.608724 " transform="matrix(6,0,0,6,0,0)"/>
<path style="fill:none;stroke-width:1;stroke-linecap:butt;stroke-linejoin:miter;stroke:#FFFFFF;stroke-opacity:1;stroke-miterlimit:10;" d="M 232.839193 312.40625 C 231.113281 314.311849 229.328125 316.337891 228.75 318.84375 C 228.173177 321.35026 229.292969 324.445964 231.766927 325.145833 C 234.324219 325.869792 236.774089 323.863281 238.679036 322.009766 C 242.173828 318.608073 245.669271 315.207031 249.164062 311.804688 C 252.514323 308.544922 269.054688 292.115885 256.089193 290.248698 C 249.244792 289.263021 237.167318 307.625 232.839193 312.40625 Z M 232.839193 312.40625 " transform="matrix(6,0,0,6,0,0)"/>
<path style="fill:none;stroke-width:1;stroke-linecap:butt;stroke-linejoin:miter;stroke:#FFFFFF;stroke-opacity:1;stroke-miterlimit:10;" d="M 393.51888 72.955078 C 391.807943 89.837891 389.509115 107.076823 383.820312 123.147135 C 377.522786 140.932943 360.158854 156.804036 357.460286 175.554688 C 355.470703 189.373047 370.623047 191.27474 380.921224 190.440104 C 409.263021 188.14388 433.147786 174.815104 451.580729 155.600911 C 470.014323 136.386719 482.994792 111.289714 489.529297 85.457682 C 496.770833 56.828776 500.121094 27.039714 511.248047 -0.313802 C 512.550781 -3.516276 513.981771 -6.794922 513.949219 -10.251953 C 513.867188 -18.759766 505.138021 -24.632161 496.865885 -26.621094 C 476.73112 -31.46224 441.908854 -22.718099 425.860677 -8.350911 C 408.296875 7.373047 400.21875 32.291016 395.992188 54.783854 C 394.860677 60.802083 394.134766 66.871094 393.51888 72.955078 Z M 393.51888 72.955078 " transform="matrix(6,0,0,6,0,0)"/>
<path style="fill:none;stroke-width:1;stroke-linecap:butt;stroke-linejoin:miter;stroke:#FFFFFF;stroke-opacity:1;stroke-miterlimit:10;" d="M 433.42513 4.242839 C 425.35026 11.67513 419.841797 21.910156 415.942708 32.785156 C 413.417969 39.824219 411.589193 47.143229 410.214193 54.182943 C 409.285156 58.936198 408.638021 63.71224 408.106771 68.464844 C 406.729167 80.813802 405.039714 93.309896 401.162109 104.863281 C 399.567057 109.615885 397.033203 114.145182 394.369792 118.59375 C 389.604818 126.552083 384.53776 134.591797 383.796875 143.102865 C 382.957031 152.748698 393.570964 154.085938 400.998698 153.369792 C 406.785807 152.822266 412.311198 151.559896 417.470703 149.69987 C 430.358073 145.067057 441.33724 137.042969 450.113281 126.783854 C 459.464844 115.850911 466.623698 102.578125 472.026693 88.779297 C 474.123047 83.425781 475.927083 77.970703 477.434245 72.492839 C 479.822917 63.802083 481.860026 55.018229 484.169271 46.335938 C 487.692708 33.085938 492.136719 19.878906 494.929036 8.283854 C 495.470052 6.035807 496.035156 3.807292 495.733073 1.417969 C 495.011068 -4.279948 489.160807 -8.238932 483.315104 -9.505208 C 468.921875 -12.619792 444.811849 -6.235677 433.42513 4.242839 Z M 433.42513 4.242839 " transform="matrix(6,0,0,6,0,0)"/>
<path style="fill:none;stroke-width:1;stroke-linecap:butt;stroke-linejoin:miter;stroke:#FFFFFF;stroke-opacity:1;stroke-miterlimit:10;" d="M 440.990234 16.83724 C 435.445964 22.227865 431.565104 29.85026 428.695312 37.970703 C 426.884766 43.089193 425.509115 48.423177 424.436198 53.582031 C 423.708984 57.072266 423.145182 60.554688 422.695964 63.977214 C 421.669271 71.792969 420.585286 79.550781 418.505859 86.582031 C 417.595052 89.662109 416.25 92.544271 414.871745 95.281901 C 412.330729 100.330729 409.875 105.582031 410.136068 110.654297 C 410.416016 116.10612 416.51888 116.891276 421.078776 116.302734 C 424.55599 115.854818 427.871745 114.895182 430.845703 113.513021 C 438.253255 110.089193 444.195964 104.660807 448.645833 97.970703 C 454.042318 89.858724 457.936849 80.300781 461.492839 70.727865 C 462.873047 67.014323 464.151693 63.266276 465.339193 59.529948 C 467.216797 53.613281 469.035156 47.695312 471.231771 41.934896 C 474.712891 32.811849 479.751302 23.96875 478.608724 16.884115 C 478.408203 15.639323 478.125 14.488932 477.516276 13.089844 C 476.302083 10.302083 473.18099 8.160156 469.763021 7.613281 C 461.110026 6.227865 447.738932 10.274089 440.990234 16.83724 Z M 440.990234 16.83724 " transform="matrix(6,0,0,6,0,0)"/>
<path style="fill:none;stroke-width:1;stroke-linecap:butt;stroke-linejoin:miter;stroke:#FFFFFF;stroke-opacity:1;stroke-miterlimit:10;" d="M 435.371094 71.96875 C 435.108724 74.134766 434.996094 76.598307 436.472005 78.203776 C 438.457682 80.365234 442.292318 79.53776 444.218099 77.324219 C 446.14388 75.110026 446.682292 72.048177 447.175781 69.15625 C 448.128255 63.589844 449.246094 58.022135 450.957031 52.675781 C 452.667969 47.330729 454.970703 42.207682 458.292969 37.533854 C 462.270833 31.936198 470.042318 26.451823 459.296875 24.761719 C 455.033203 24.091146 451.490234 26.005859 448.552734 29.43099 C 445.615885 32.854818 443.285807 37.789714 441.445964 43.158203 C 439.60612 48.526042 438.257161 54.328125 437.283203 59.488932 C 436.309896 64.649089 435.710938 69.167969 435.371094 71.96875 Z M 435.371094 71.96875 " transform="matrix(6,0,0,6,0,0)"/>
<path style="fill:none;stroke-width:1;stroke-linecap:butt;stroke-linejoin:miter;stroke:#FFFFFF;stroke-opacity:1;stroke-miterlimit:10;" d="M 323.867839 205.716146 C 321.093099 208.30013 318.470052 211.139323 316.779297 214.533203 C 315.087891 217.927083 314.406901 221.958984 315.60612 225.55599 C 316.804688 229.152995 320.126953 232.136068 323.916016 232.287109 C 327.964844 232.449219 331.449219 229.611979 334.447917 226.886719 C 340.919271 221.005859 347.511068 214.223958 348.80599 205.576823 C 351.966146 184.466797 330.733073 199.324219 323.867839 205.716146 Z M 323.867839 205.716146 " transform="matrix(6,0,0,6,0,0)"/>
<path style="fill:none;stroke-width:1;stroke-linecap:butt;stroke-linejoin:miter;stroke:#FFFFFF;stroke-opacity:1;stroke-miterlimit:10;" d="M 365.231771 240.156901 C 330.277995 270.302083 320.542318 323.923828 282.167318 349.570964 C 267.518229 359.360677 249.511719 364.363281 237.216797 376.983724 C 224.235026 390.311198 219.90625 410.639323 223.643229 428.863932 C 227.380208 447.089193 238.401693 463.244141 252.169922 475.757161 C 277.208984 498.513021 313.563802 510.07487 346.080078 500.720052 C 371.261719 493.473958 391.600911 475.050781 409.311849 455.738281 C 427.022786 436.42513 443.375 415.401042 464.792969 400.302734 C 492.46875 380.792969 526.576823 372.60612 555.707031 355.341797 C 564.55013 350.100911 573.19987 343.705078 577.998047 334.613932 C 582.716797 325.673177 583.182943 315.119792 582.671875 305.022786 C 582.011719 291.977214 579.559245 278.259766 571.01888 268.375 C 562.173177 258.134766 548.458984 253.82487 535.485026 249.979167 C 517.546224 244.660807 499.067057 240.169922 481.488932 233.753255 C 471.029297 229.934896 461.602865 224.02474 450.76888 221.207031 C 420.544922 213.34375 389.386719 220.832682 365.231771 240.156901 Z M 365.231771 240.156901 " transform="matrix(6,0,0,6,0,0)"/>
<path style="fill:none;stroke-width:1;stroke-linecap:butt;stroke-linejoin:miter;stroke:#FFFFFF;stroke-opacity:1;stroke-miterlimit:10;" d="M 371.811849 261.447917 C 342.559896 285.748047 334.992839 330.462891 303.375 351.593099 C 291.30599 359.658854 276.470703 363.779948 266.341146 374.177734 C 255.645182 385.158203 252.078125 401.90625 255.158203 416.921224 C 258.236979 431.936849 267.317708 445.246094 278.660807 455.554688 C 299.291016 474.304036 329.242839 483.830078 356.033203 476.121094 C 376.779948 470.151042 393.53776 454.973307 408.128906 439.061198 C 422.720052 423.149089 436.192708 405.826823 453.839193 393.388021 C 476.641276 377.313802 504.742188 370.56901 528.742188 356.345052 C 536.026693 352.026693 543.154948 346.757812 547.106771 339.268229 C 550.994792 331.901042 551.378906 323.207031 550.957682 314.888021 C 550.414062 304.139974 548.393229 292.837891 541.356771 284.69401 C 534.06901 276.257161 522.770182 272.707031 512.080729 269.53776 C 497.300781 265.15625 482.076172 261.455729 467.59375 256.169922 C 458.975911 253.024089 451.210286 248.154948 442.283854 245.832682 C 417.384115 239.35612 391.416016 245.162109 371.811849 261.447917 Z M 371.811849 261.447917 " transform="matrix(6,0,0,6,0,0)"/>
<path style="fill:none;stroke-width:1;stroke-linecap:butt;stroke-linejoin:miter;stroke:#FFFFFF;stroke-opacity:1;stroke-miterlimit:10;" d="M 378.391927 282.738281 C 355.393229 301.84375 349.442708 337.001302 324.583984 353.613932 C 315.095052 359.955729 303.429688 363.195964 295.466146 371.371094 C 287.057292 380.003906 284.251953 393.171875 286.673177 404.977865 C 289.09375 416.783854 296.233073 427.248698 305.151693 435.354167 C 321.371745 450.095052 344.921875 457.585286 365.985026 451.524089 C 382.298177 446.830078 395.473307 434.895833 406.945312 422.386068 C 418.417969 409.875 429.011068 396.255859 442.884115 386.475911 C 460.811849 373.83724 482.90625 368.535156 501.776042 357.350911 C 507.503906 353.955729 513.108073 349.813151 516.214844 343.923828 C 519.272135 338.132161 519.574219 331.296224 519.242839 324.755859 C 518.815755 316.304688 517.225911 307.419271 511.695312 301.016276 C 505.964844 294.382161 497.080729 291.591146 488.677083 289.098958 C 477.05599 285.654297 465.085938 282.744792 453.699219 278.587891 C 446.923828 276.115234 440.817057 272.285807 433.798828 270.460938 C 414.222005 265.367839 393.804688 269.932943 378.391927 282.738281 Z M 378.391927 282.738281 " transform="matrix(6,0,0,6,0,0)"/>
<path style="fill:none;stroke-width:1;stroke-linecap:butt;stroke-linejoin:miter;stroke:#FFFFFF;stroke-opacity:1;stroke-miterlimit:10;" d="M 384.970703 304.027995 C 368.22526 317.940104 363.891927 343.539062 345.791016 355.634766 C 338.880859 360.253255 330.388021 362.611979 324.589193 368.565104 C 318.466146 374.850911 316.423828 384.438802 318.186849 393.035156 C 319.94987 401.630859 325.147786 409.251302 331.641927 415.152995 C 343.451823 425.886719 360.60026 431.339844 375.936849 426.927083 C 387.815104 423.509115 397.408203 414.820312 405.761719 405.710286 C 414.115885 396.600911 421.828776 386.684245 431.93099 379.563151 C 444.985026 370.360026 461.072917 366.498698 474.813151 358.35612 C 478.983724 355.884115 483.063802 352.867188 485.326823 348.578776 C 487.552734 344.361979 487.772786 339.384115 487.531901 334.621745 C 487.220703 328.46875 486.063151 321.998698 482.035807 317.335938 C 477.863932 312.505859 471.395182 310.473307 465.276042 308.658854 C 456.815104 306.151042 448.098307 304.031901 439.807292 301.005859 C 434.873047 299.205078 430.427734 296.417318 425.317057 295.087891 C 411.061198 291.380859 396.19401 294.705078 384.970703 304.027995 Z M 384.970703 304.027995 " transform="matrix(6,0,0,6,0,0)"/>
<path style="fill:none;stroke-width:1;stroke-linecap:butt;stroke-linejoin:miter;stroke:#FFFFFF;stroke-opacity:1;stroke-miterlimit:10;" d="M 391.550781 325.317708 C 381.057292 334.035156 378.341797 350.076172 367 357.656901 C 362.669922 360.550781 357.348307 362.029297 353.714844 365.759115 C 349.878255 369.697917 348.598307 375.705729 349.703125 381.093099 C 350.807943 386.479818 354.065104 391.253906 358.134115 394.953125 C 365.535156 401.679036 376.279948 405.095703 385.891276 402.330729 C 393.333984 400.188802 399.345052 394.744141 404.580078 389.035807 C 409.813802 383.328125 414.647786 377.113932 420.977865 372.651042 C 429.158203 366.884115 439.238932 364.464844 447.848958 359.361979 C 450.462891 357.813151 453.01888 355.923177 454.436849 353.235677 C 455.832031 350.593099 455.970052 347.473958 455.81901 344.490234 C 455.623698 340.634115 454.899089 336.580078 452.375 333.658203 C 449.759766 330.630859 445.707031 329.358073 441.871745 328.220703 C 436.570312 326.649089 431.108073 325.322266 425.91276 323.42513 C 422.820964 322.296224 420.035156 320.55013 416.832682 319.716797 C 407.899089 317.393229 398.582682 319.475911 391.550781 325.317708 Z M 391.550781 325.317708 " transform="matrix(6,0,0,6,0,0)"/>
<path style="fill:none;stroke-width:1;stroke-linecap:butt;stroke-linejoin:miter;stroke:#FFFFFF;stroke-opacity:1;stroke-miterlimit:10;" d="M 398.130208 346.608073 C 393.955078 350.208984 392.792318 356.613932 388.207031 359.677734 C 386.457031 360.847005 384.30599 361.445312 382.83724 362.953125 C 381.285807 364.544922 380.76888 366.973307 381.216146 369.14974 C 381.662109 371.326823 382.979167 373.257161 384.623698 374.751953 C 387.615234 377.470052 391.957682 378.852214 395.841797 377.733724 C 398.85026 376.867839 401.279948 374.667969 403.395182 372.360677 C 405.511068 370.054036 407.464193 367.542318 410.022786 365.738932 C 413.328776 363.408203 417.402995 362.429688 420.882812 360.367839 C 421.938802 359.742188 422.973307 358.977865 423.546224 357.891927 C 424.110026 356.824219 424.164714 355.563151 424.104167 354.356771 C 424.02474 352.798828 423.731771 351.160156 422.71224 349.979167 C 421.654948 348.755859 420.016927 348.240885 418.466797 347.781901 C 416.324219 347.147135 414.117188 346.610026 412.016927 345.84375 C 410.768229 345.388021 409.641927 344.682292 408.347005 344.345052 C 404.738281 343.404948 401.016276 344.30013 398.130208 346.608073 Z M 398.130208 346.608073 " transform="matrix(6,0,0,6,0,0)"/>
<path style="fill:none;stroke-width:1;stroke-linecap:butt;stroke-linejoin:miter;stroke:#FFFFFF;stroke-opacity:1;stroke-miterlimit:10;" d="M 377.348958 514.453125 C 409.110026 493.544922 433.393229 465.292969 461.589193 440.363281 C 478.451172 425.453776 496.751953 412.173828 516.154297 400.766276 C 536.233724 388.958984 558.177734 381.259766 578.304688 369.695312 C 600.544271 356.916016 619.285807 338.389974 626.274089 313.097005 C 632.283203 291.348958 630.466797 263.026693 617.298828 243.994141 C 610.229167 233.774089 599.440104 226.585286 587.955078 221.839193 C 565.673177 212.630208 540.328776 212.369141 520.238932 197.738932 C 509.432943 189.869792 504.826172 178.427734 503.5 165.514323 C 502.764323 158.350911 503.082031 150.85026 506.205078 144.361979 C 510.445964 135.55013 519.082682 131.804036 528.457031 131.639323 C 548.908854 131.277995 568.679036 139.791016 588.561849 143.270833 C 604.860677 146.123698 622.871745 143.667969 636.121094 155.785807 C 647.317057 166.026693 649.485677 182.473307 653.177083 197.190755 C 665.509115 246.363932 701.886068 290.664714 697.576823 341.177734 C 694.360026 378.880208 669.016276 410.365885 646.703776 440.927734 C 624.393229 471.490234 603.207031 507.727865 610.057292 544.942057 " transform="matrix(6,0,0,6,0,0)"/>
<path style="fill:none;stroke-width:1;stroke-linecap:butt;stroke-linejoin:miter;stroke:#FFFFFF;stroke-opacity:1;stroke-miterlimit:10;" d="M 419.313802 519.39388 C 456.494141 492.289714 478.136068 449.779948 513.632161 420.992188 C 552.813151 389.214844 618.188151 375.867188 638.792969 324.813151 C 648.85026 299.893229 648.67513 261.753255 636.115885 237.591146 C 619.06901 204.792969 573.417318 207.69987 547.68099 185.216146 C 543.873698 181.889974 540.35612 177.966146 538.794271 173.156901 C 528.559245 141.643229 583.638021 157.259115 596.578125 162.17513 C 620.074219 171.102214 634.654297 196.410156 645.138021 217.779948 C 658.294271 244.595703 671.554036 269.957031 674.776042 300.287109 C 679.509766 344.837891 665.722005 385.936849 638.28125 420.772135 C 629.837891 431.488932 620.468099 441.488281 612.664714 452.679036 C 590.460938 484.52474 582.199219 525.742188 590.41276 563.684896 " transform="matrix(6,0,0,6,0,0)"/>
<path style="fill:none;stroke-width:1;stroke-linecap:butt;stroke-linejoin:miter;stroke:#FFFFFF;stroke-opacity:1;stroke-miterlimit:10;" d="M 594.835286 391.981771 C 592.369792 393.791016 589.82487 395.725911 588.503255 398.483073 C 586.630859 402.389323 587.621094 407.005208 588.740234 411.188802 C 589.748698 414.96224 590.886068 418.815104 593.277995 421.901693 C 595.669922 424.988932 599.619141 427.17513 603.445964 426.399089 C 606.578125 425.763021 609.003255 423.354167 611.205729 421.039062 C 625.617188 405.89388 639.535807 389.311849 647.197917 369.608724 C 648.744792 365.630859 656.850911 343.703776 646.705729 347.322266 C 642.720052 348.742839 639.389323 354.675781 636.688151 357.662109 C 632.947266 361.796875 628.886719 365.634766 624.669271 369.277995 C 615.203125 377.453125 604.908203 384.591146 594.835286 391.981771 Z M 594.835286 391.981771 " transform="matrix(6,0,0,6,0,0)"/>
<path style="fill:none;stroke-width:1;stroke-linecap:butt;stroke-linejoin:miter;stroke:#FFFFFF;stroke-opacity:1;stroke-miterlimit:10;" d="M 481.470703 508.132812 C 489.108724 498.027995 496.162109 487.479818 502.582031 476.559896 C 508.559896 466.391276 514.035807 455.833984 521.526042 446.720703 C 529.016276 437.608724 538.891276 429.891276 550.457031 427.574219 C 554.464844 426.770833 559.039714 426.77474 562.147135 429.43099 C 563.617839 430.688802 564.600911 432.419271 565.423828 434.169922 C 569.889974 443.67513 570.354167 454.985026 566.682292 464.824219 C 564.843099 469.751953 562.042318 474.259766 559.871745 479.052083 C 555.378906 488.973307 553.658203 500.132161 554.951823 510.945964 " transform="matrix(6,0,0,6,0,0)"/>
<path style="fill:none;stroke-width:1;stroke-linecap:butt;stroke-linejoin:miter;stroke:#FFFFFF;stroke-opacity:1;stroke-miterlimit:10;" d="M 496.005859 505.692708 C 510.395182 492.011719 518.89974 473.40625 530.748047 457.473958 C 534.522135 452.39974 538.770833 447.48112 544.292318 444.397135 C 548.223958 442.201172 554.011719 441.438802 556.542969 445.164714 C 557.60026 446.720703 557.78776 448.708984 557.697917 450.587891 C 557.30013 458.854167 552.313151 466.061849 548.861979 473.582682 C 543.341797 485.611979 541.621745 499.350911 544.005859 512.369792 " transform="matrix(6,0,0,6,0,0)"/>
<path style="fill:none;stroke-width:1;stroke-linecap:butt;stroke-linejoin:miter;stroke:#FFFFFF;stroke-opacity:1;stroke-miterlimit:10;" d="M 516.582031 509.332682 C 520.227865 503.910156 523.093099 497.962891 525.059896 491.73112 C 525.854167 489.214193 526.56901 486.533854 528.414714 484.647786 C 528.869141 484.184245 529.401693 483.770182 530.026042 483.593099 C 531.557943 483.158854 533.175781 484.32487 533.811198 485.785156 C 534.445964 487.244792 534.35026 488.904948 534.240885 490.494141 C 533.914062 495.287109 533.58724 500.078776 533.259115 504.871745 C 533.14974 506.468099 533.466797 508.617839 535.057292 508.804036 " transform="matrix(6,0,0,6,0,0)"/>
<path style="fill:none;stroke-width:1;stroke-linecap:butt;stroke-linejoin:miter;stroke:#FFFFFF;stroke-opacity:1;stroke-miterlimit:10;" d="M 566.117839 -14.024089 C 542.277995 -5.414714 526.858073 23.341146 528.472005 47.690104 C 530.063802 71.703125 546.01888 90.615234 566.966797 101.110026 C 596.567057 115.940104 633.218099 101.34375 660.203125 123.382161 C 680.216797 139.727214 683.776042 164.746094 688.169922 188.514323 C 696.520182 233.677083 730.589844 312.199219 789.701172 303.861979 " transform="matrix(6,0,0,6,0,0)"/>
<path style="fill:none;stroke-width:1;stroke-linecap:butt;stroke-linejoin:miter;stroke:#FFFFFF;stroke-opacity:1;stroke-miterlimit:10;" d="M 587.89974 -16.037109 C 567.934896 -7.414062 555.376953 17.529948 556.852214 38.960286 C 558.285807 59.876302 571.600911 76.580078 588.880859 86.710938 C 613.791016 101.315104 644.548177 92.595703 668.042318 112.720052 C 685.47526 127.65625 689.798828 149.421875 695.227214 169.932943 C 705.748047 209.690755 738.22526 275.01888 790.81901 269.539714 " transform="matrix(6,0,0,6,0,0)"/>
<path style="fill:none;stroke-width:1;stroke-linecap:butt;stroke-linejoin:miter;stroke:#FFFFFF;stroke-opacity:1;stroke-miterlimit:10;" d="M 609.682292 -18.05013 C 593.593099 -9.414062 583.895833 11.718099 585.231771 30.23112 C 586.507812 48.05013 597.182292 62.595052 610.794922 72.313151 C 631.022786 86.753255 655.878255 83.848958 675.880208 102.059245 C 690.731771 115.585938 695.871745 134.108073 702.283203 151.352214 C 715.063151 185.73112 745.858724 237.839193 791.936198 235.218099 " transform="matrix(6,0,0,6,0,0)"/>
<path style="fill:none;stroke-width:1;stroke-linecap:butt;stroke-linejoin:miter;stroke:#FFFFFF;stroke-opacity:1;stroke-miterlimit:10;" d="M 631.464193 -20.063151 C 619.25 -11.414062 612.416016 5.906901 613.611979 21.501302 C 614.729818 36.222005 622.742839 48.684896 632.708984 57.914062 C 648.236979 72.292969 667.207682 75.100911 683.71875 91.397135 C 695.990234 103.516276 702.020833 118.78776 709.339844 132.770182 C 724.516276 161.764974 753.494141 200.658203 793.054688 200.89388 " transform="matrix(6,0,0,6,0,0)"/>
<path style="fill:none;stroke-width:1;stroke-linecap:butt;stroke-linejoin:miter;stroke:#FFFFFF;stroke-opacity:1;stroke-miterlimit:10;" d="M 653.244792 -22.076172 C 644.906901 -13.41276 640.934245 0.0957031 641.990885 12.770833 C 642.94987 24.395182 648.227865 34.878906 654.621745 43.514974 C 665.337891 57.988281 678.537109 66.352865 691.557292 80.735026 C 701.246094 91.445312 708.263021 103.423177 716.395182 114.188802 C 734.160807 137.707682 761.126953 163.477865 794.171224 166.572266 " transform="matrix(6,0,0,6,0,0)"/>
<path style="fill:none;stroke-width:1;stroke-linecap:butt;stroke-linejoin:miter;stroke:#FFFFFF;stroke-opacity:1;stroke-miterlimit:10;" d="M 675.026693 -24.089193 C 666.664062 -7.830729 670.072917 12.014323 676.535807 29.117188 C 695.845703 80.216797 741.986979 120.289714 795.289062 132.251302 " transform="matrix(6,0,0,6,0,0)"/>
<path style="fill:none;stroke-width:1;stroke-linecap:butt;stroke-linejoin:miter;stroke:#FFFFFF;stroke-opacity:1;stroke-miterlimit:10;" d="M 700.294271 -10.022786 C 703.904297 12.352865 715.003255 33.453776 731.395833 49.10612 C 742.251953 59.470703 755.177083 67.369141 768.003255 75.164714 " transform="matrix(6,0,0,6,0,0)"/>
<path style="fill:none;stroke-width:1;stroke-linecap:butt;stroke-linejoin:miter;stroke:#FFFFFF;stroke-opacity:1;stroke-miterlimit:10;" d="M 721.06901 -7.496094 C 727.94987 15.919271 744.388021 36.371745 765.77474 48.128906 " transform="matrix(6,0,0,6,0,0)"/>
<path style="fill:none;stroke-width:1;stroke-linecap:butt;stroke-linejoin:miter;stroke:#FFFFFF;stroke-opacity:1;stroke-miterlimit:10;" d="M 737.279948 -10.496094 C 741.326823 -4.341146 743.84375 2.688151 747.52474 9.070312 C 751.205729 15.451172 756.498698 21.451823 763.606771 23.384766 " transform="matrix(6,0,0,6,0,0)"/>
<path style="fill:none;stroke-width:1;stroke-linecap:butt;stroke-linejoin:miter;stroke:#FFFFFF;stroke-opacity:1;stroke-miterlimit:10;" d="M 456.472005 174.132812 C 453.554688 179.64974 452.817708 185.492188 458.091797 190.057943 C 467.091797 197.850911 488.376953 203.565755 491.878906 187.356771 C 496.044922 168.078776 485.210938 147.16276 500.777995 130.628906 C 506.419271 124.636719 518.397786 119.347005 518.464193 109.744141 C 518.505859 103.591797 512.464193 99.360677 506.753255 98.979818 C 497.524089 98.363932 495.223307 106.626302 492.18099 113.703125 C 482.886068 135.326823 469.225911 152.733073 457.264323 172.729167 C 456.985677 173.19401 456.720703 173.66276 456.472005 174.132812 Z M 456.472005 174.132812 " transform="matrix(6,0,0,6,0,0)"/>
<path style="fill:none;stroke-width:1;stroke-linecap:butt;stroke-linejoin:miter;stroke:#FFFFFF;stroke-opacity:1;stroke-miterlimit:10;" d="M 585.636719 170.979818 C 583.080729 170.097005 580.315755 170.054036 577.613932 170.164062 C 575.082031 170.268229 572.473958 170.522135 570.242839 171.722005 C 568.011719 172.921875 566.233724 175.287109 566.438151 177.813151 C 566.686198 180.886719 569.565104 182.996094 572.244141 184.522786 C 576.839844 187.141927 599.33724 198.154297 603.376953 190.96875 C 606.850911 184.78776 589.996745 172.486979 585.636719 170.979818 Z M 585.636719 170.979818 " transform="matrix(6,0,0,6,0,0)"/>
<path style="fill:none;stroke-width:1;stroke-linecap:butt;stroke-linejoin:miter;stroke:#FFFFFF;stroke-opacity:1;stroke-miterlimit:10;" d="M 648.505208 524.80599 C 637.259766 490.746094 670.645182 454.402995 695.111979 435.432292 C 707.53776 425.796875 715.485677 411.710938 719.447266 396.610677 C 725.014974 375.386068 723.815104 353.240885 728.261068 331.828776 C 732.845703 309.748698 751.248698 304.91276 769.768229 316.188802 C 775.248698 319.526042 780.563151 323.136719 785.684896 327.003255 " transform="matrix(6,0,0,6,0,0)"/>
<path style="fill:none;stroke-width:1;stroke-linecap:butt;stroke-linejoin:miter;stroke:#FFFFFF;stroke-opacity:1;stroke-miterlimit:10;" d="M 666.337891 529.686849 C 656.902995 500.621094 684.393229 469.789062 704.880859 452.889974 C 715.96875 443.744141 723.598958 431.130208 728.317057 417.891927 C 735.141927 398.744141 736.977214 378.830729 741.736979 358.641927 C 746.511719 338.389323 760.522786 333.507161 777.697917 338.21875 C 783.279948 339.75 790.026693 340.921224 796.376953 344.264323 " transform="matrix(6,0,0,6,0,0)"/>
<path style="fill:none;stroke-width:1;stroke-linecap:butt;stroke-linejoin:miter;stroke:#FFFFFF;stroke-opacity:1;stroke-miterlimit:10;" d="M 684.171224 534.567708 C 676.546875 510.496094 698.098307 485.102214 714.649089 470.348307 C 724.391276 461.664062 731.761068 450.546875 737.184896 439.173828 C 745.330078 422.09375 750.119792 404.421224 755.210938 385.455078 C 760.156901 367.026693 771.190104 358.007812 785.626953 360.248047 C 791.598958 358.598307 799.490885 358.703125 807.067708 361.52474 " transform="matrix(6,0,0,6,0,0)"/>
<path style="fill:none;stroke-width:1;stroke-linecap:butt;stroke-linejoin:miter;stroke:#FFFFFF;stroke-opacity:1;stroke-miterlimit:10;" d="M 702.003255 539.449219 C 696.190104 520.371094 711.738281 500.320964 724.417318 487.807292 C 732.78776 479.544271 739.985677 469.979818 746.052734 460.455729 C 755.604818 445.46224 763.242188 430.007161 768.684896 412.268229 C 773.779948 395.660156 781.158854 384.55599 793.554688 382.276693 C 799.772786 378.134115 808.953125 376.485677 817.759115 378.785156 " transform="matrix(6,0,0,6,0,0)"/>
<path style="fill:none;stroke-width:1;stroke-linecap:butt;stroke-linejoin:miter;stroke:#FFFFFF;stroke-opacity:1;stroke-miterlimit:10;" d="M 719.835938 544.330078 C 715.833984 530.246094 725.274089 515.425781 734.184896 505.264974 C 741.123047 497.354167 748.274089 489.453776 754.921875 481.738281 C 765.983073 468.897786 776.339193 455.585286 782.158854 439.082031 C 787.378255 424.285807 791.927734 412.188802 801.483724 404.307292 C 808.630859 398.412109 818.417318 394.26888 828.44987 396.046224 " transform="matrix(6,0,0,6,0,0)"/>
<path style="fill:none;stroke-width:1;stroke-linecap:butt;stroke-linejoin:miter;stroke:#FFFFFF;stroke-opacity:1;stroke-miterlimit:10;" d="M 737.669271 549.210938 C 735.477214 540.121094 738.628255 530.408854 743.953125 522.723307 C 749.279297 515.037109 756.606771 509.005208 763.789714 503.01888 C 776.447266 492.470703 789.397786 481.145182 795.632812 465.89388 C 800.947266 452.897135 801.098307 437.651042 809.41276 426.335286 C 816.123047 417.203776 827.880208 412.050781 839.141276 413.304688 " transform="matrix(6,0,0,6,0,0)"/>
</g>
</svg>
