<svg viewBox="0 0 15 15" height="4em" width="4em" fill="#f8ee33" xmlns="http://www.w3.org/2000/svg"><path d="M7.5 2.5c-1.026 0-1.908.277-2.6003.8704-.6874.5892-1.1371 1.4469-1.3866 2.516a.5.5 0 0 0 .8966.4003c.3166-.4523.6327-.724.9365-.8636.2942-.135.6113-.1624.9745-.0651.3665.0982.6503.3857 1.0957.8702l.0144.0156c.3358.3652.7454.8108 1.3057 1.1565C9.3179 7.759 10.0413 8 11 8c1.0259 0 1.908-.277 2.6004-.8704.6873-.5892 1.137-1.4469 1.3865-2.516a.5.5 0 0 0-.8966-.4003c-.3166.4523-.6327.724-.9365.8636-.2942.135-.6113.1624-.9745.0651-.3665-.0982-.6503-.3857-1.0957-.8702l-.0144-.0156c-.3358-.3653-.7454-.8108-1.3057-1.1565C9.1823 2.741 8.4588 2.5 7.5001 2.5ZM4 7c-1.026 0-1.908.2769-2.6003.8704C.7123 8.4596.2626 9.3173.013 10.3864a.5.5 0 0 0 .8966.4003c.3166-.4523.6327-.7241.9365-.8636.2942-.135.6113-.1624.9745-.0651.3665.0981.6503.3857 1.0957.8702l.0144.0156c.3358.3652.7454.8108 1.3057 1.1565.5813.3587 1.3048.5997 2.2636.5997 1.026 0 1.908-.2769 2.6004-.8704.6873-.5892 1.137-1.4469 1.3865-2.516a.5.5 0 0 0-.8966-.4003c-.3166.4523-.6327.724-.9365.8635-.2942.1351-.6113.1625-.9745.0652-.3665-.0982-.6502-.3857-1.0957-.8702l-.0144-.0157c-.3358-.3652-.7454-.8107-1.3057-1.1564C5.6823 7.241 4.9588 7 4.0001 7Z"/></svg>